<svg width="32" height="33" viewBox="0 0 32 33" fill="none" xmlns="http://www.w3.org/2000/svg">
<path d="M15.9146 0.35376C24.6861 0.35376 31.8292 7.49346 31.8292 16.2776C31.8292 25.0433 24.6861 32.183 15.9146 32.183C7.14314 32.183 0 25.0433 0 16.2776C0 7.49346 7.14314 0.35376 15.9146 0.35376ZM14.1019 9.95013C13.764 9.95013 13.4414 10.0269 13.1342 10.1804C12.7501 10.3954 12.4429 10.7332 12.2739 11.1324C12.1664 11.4088 11.9974 12.2379 11.9974 12.2533C11.8284 13.1592 11.7363 14.6332 11.7363 16.2607C11.7363 17.813 11.8284 19.2241 11.9667 20.1453C11.982 20.1607 12.151 21.1894 12.3354 21.5425C12.6733 22.1874 13.3339 22.5866 14.0405 22.5866H14.1019C14.5628 22.5713 15.5306 22.1721 15.5306 22.1567C17.1589 21.4811 20.3695 19.3776 21.6598 17.9804L21.752 17.8882C21.921 17.7193 22.1361 17.4583 22.1821 17.3969C22.4279 17.0745 22.5508 16.6753 22.5508 16.2776C22.5508 15.8308 22.4126 15.4162 22.1514 15.0784C22.09 15.017 21.8596 14.756 21.6445 14.541C20.3848 13.1899 17.0975 10.9789 15.377 10.3033C15.1158 10.1973 14.4553 9.96548 14.1019 9.95013Z" fill="white"/>
</svg>
