<svg width="15" height="17" viewBox="0 0 15 17" fill="none" xmlns="http://www.w3.org/2000/svg">
<path d="M0.523056 6.89775C0.603101 6.81558 0.905342 6.46425 1.18688 6.17525C2.83747 4.35767 7.14337 1.38267 9.39706 0.474583C9.73933 0.328667 10.6046 0.0198333 11.067 0C11.51 0 11.9323 0.102 12.3353 0.308833C12.8376 0.597833 13.2406 1.05258 13.4614 1.5895C13.6036 1.96208 13.8244 3.077 13.8244 3.09683C14.0452 4.31658 14.1667 6.2985 14.1667 8.48867C14.1667 10.5754 14.0452 12.4766 13.8644 13.7147C13.8437 13.7346 13.6229 15.1201 13.3814 15.5947C12.9384 16.4617 12.0731 17 11.147 17H11.067C10.4639 16.9788 9.19557 16.4404 9.19557 16.4206C7.06332 15.5111 2.8568 12.682 1.16618 10.8021C1.16618 10.8021 0.690047 10.319 0.483033 10.0173C0.160091 9.58375 0 9.04683 0 8.50992C0 7.91067 0.180792 7.3525 0.523056 6.89775Z" fill="white"/>
</svg>
